<mxfile host="app.diagrams.net" modified="2023-06-28T05:02:01.491Z" agent="Mozilla/5.0 (Macintosh; Intel Mac OS X 10_15_7) AppleWebKit/537.36 (KHTML, like Gecko) Chrome/114.0.0.0 Safari/537.36" etag="uo9sWJPRaukEnMkHQjok" version="21.5.1" type="github">
  <diagram name="Page-1" id="2YBvvXClWsGukQMizWep">
    <mxGraphModel dx="2393" dy="1284" grid="1" gridSize="10" guides="1" tooltips="1" connect="1" arrows="1" fold="1" page="0" pageScale="1" pageWidth="900" pageHeight="1600" background="#ffffff" math="0" shadow="1">
      <root>
        <mxCell id="0" />
        <mxCell id="1" parent="0" />
        <mxCell id="w3quCmvCJ4kMD0r-27Fn-25" value="" style="edgeStyle=elbowEdgeStyle;orthogonalLoop=1;jettySize=auto;html=1;elbow=horizontal;curved=0;rounded=0;" edge="1" parent="1">
          <mxGeometry relative="1" as="geometry">
            <mxPoint y="200" as="sourcePoint" />
            <mxPoint x="320" y="200" as="targetPoint" />
          </mxGeometry>
        </mxCell>
        <mxCell id="w3quCmvCJ4kMD0r-27Fn-26" value="命中技能总门户&lt;br&gt;携带历史对话创建一个新会话" style="edgeLabel;html=1;align=center;verticalAlign=middle;resizable=0;points=[];" vertex="1" connectable="0" parent="w3quCmvCJ4kMD0r-27Fn-25">
          <mxGeometry x="-0.0619" relative="1" as="geometry">
            <mxPoint as="offset" />
          </mxGeometry>
        </mxCell>
        <mxCell id="aM9ryv3xv72pqoxQDRHE-1" value="First-Level Portal&lt;br&gt;一级门户" style="shape=umlLifeline;perimeter=lifelinePerimeter;whiteSpace=wrap;html=1;container=0;dropTarget=0;collapsible=0;recursiveResize=0;outlineConnect=0;portConstraint=eastwest;newEdgeStyle={&quot;edgeStyle&quot;:&quot;elbowEdgeStyle&quot;,&quot;elbow&quot;:&quot;vertical&quot;,&quot;curved&quot;:0,&quot;rounded&quot;:0};rounded=0;" parent="1" vertex="1">
          <mxGeometry x="-140" y="20" width="260" height="500" as="geometry" />
        </mxCell>
        <mxCell id="w3quCmvCJ4kMD0r-27Fn-20" value="" style="html=1;points=[];perimeter=orthogonalPerimeter;outlineConnect=0;targetShapes=umlLifeline;portConstraint=eastwest;newEdgeStyle={&quot;edgeStyle&quot;:&quot;elbowEdgeStyle&quot;,&quot;elbow&quot;:&quot;vertical&quot;,&quot;curved&quot;:0,&quot;rounded&quot;:0};rounded=0;" vertex="1" parent="aM9ryv3xv72pqoxQDRHE-1">
          <mxGeometry x="125" y="70" width="10" height="390" as="geometry" />
        </mxCell>
        <mxCell id="aM9ryv3xv72pqoxQDRHE-10" value="未命中skills_portal&lt;br&gt;正常返回聊天信息" style="html=1;verticalAlign=bottom;endArrow=open;dashed=1;endSize=8;edgeStyle=elbowEdgeStyle;elbow=vertical;curved=0;rounded=0;" parent="1" edge="1">
          <mxGeometry x="0.0013" relative="1" as="geometry">
            <mxPoint x="-330" y="159.62000000000012" as="targetPoint" />
            <Array as="points">
              <mxPoint x="-144.73" y="159.62" />
            </Array>
            <mxPoint x="-20" y="160" as="sourcePoint" />
            <mxPoint as="offset" />
          </mxGeometry>
        </mxCell>
        <mxCell id="w3quCmvCJ4kMD0r-27Fn-14" value="User&amp;nbsp;Entity" style="shape=umlLifeline;perimeter=lifelinePerimeter;whiteSpace=wrap;html=1;container=0;dropTarget=0;collapsible=0;recursiveResize=0;outlineConnect=0;portConstraint=eastwest;newEdgeStyle={&quot;edgeStyle&quot;:&quot;elbowEdgeStyle&quot;,&quot;elbow&quot;:&quot;vertical&quot;,&quot;curved&quot;:0,&quot;rounded&quot;:0};rounded=0;" vertex="1" parent="1">
          <mxGeometry x="-420" y="20" width="170" height="500" as="geometry" />
        </mxCell>
        <mxCell id="w3quCmvCJ4kMD0r-27Fn-17" value="用户输入" style="html=1;verticalAlign=bottom;endArrow=block;edgeStyle=elbowEdgeStyle;elbow=vertical;curved=0;rounded=0;" edge="1" parent="1">
          <mxGeometry relative="1" as="geometry">
            <mxPoint x="-330" y="110.38" as="sourcePoint" />
            <Array as="points">
              <mxPoint x="-160" y="110" />
            </Array>
            <mxPoint x="-20" y="110" as="targetPoint" />
          </mxGeometry>
        </mxCell>
        <mxCell id="w3quCmvCJ4kMD0r-27Fn-31" value="" style="edgeStyle=elbowEdgeStyle;orthogonalLoop=1;jettySize=auto;html=1;elbow=horizontal;curved=0;rounded=0;" edge="1" parent="1">
          <mxGeometry relative="1" as="geometry">
            <mxPoint x="340" y="290" as="sourcePoint" />
            <mxPoint x="660" y="290" as="targetPoint" />
          </mxGeometry>
        </mxCell>
        <mxCell id="w3quCmvCJ4kMD0r-27Fn-34" value="命中技能场景&lt;br&gt;携带历史对话创建一个新会话" style="edgeLabel;html=1;align=center;verticalAlign=middle;resizable=0;points=[];" vertex="1" connectable="0" parent="w3quCmvCJ4kMD0r-27Fn-31">
          <mxGeometry x="0.0758" relative="1" as="geometry">
            <mxPoint as="offset" />
          </mxGeometry>
        </mxCell>
        <mxCell id="w3quCmvCJ4kMD0r-27Fn-23" value="Skills Scene Portal&lt;br&gt;技能场景门户" style="shape=umlLifeline;perimeter=lifelinePerimeter;whiteSpace=wrap;html=1;container=0;dropTarget=0;collapsible=0;recursiveResize=0;outlineConnect=0;portConstraint=eastwest;newEdgeStyle={&quot;edgeStyle&quot;:&quot;elbowEdgeStyle&quot;,&quot;elbow&quot;:&quot;vertical&quot;,&quot;curved&quot;:0,&quot;rounded&quot;:0};rounded=0;" vertex="1" parent="1">
          <mxGeometry x="200" y="20" width="260" height="500" as="geometry" />
        </mxCell>
        <mxCell id="w3quCmvCJ4kMD0r-27Fn-24" value="" style="html=1;points=[];perimeter=orthogonalPerimeter;outlineConnect=0;targetShapes=umlLifeline;portConstraint=eastwest;newEdgeStyle={&quot;edgeStyle&quot;:&quot;elbowEdgeStyle&quot;,&quot;elbow&quot;:&quot;vertical&quot;,&quot;curved&quot;:0,&quot;rounded&quot;:0};rounded=0;" vertex="1" parent="w3quCmvCJ4kMD0r-27Fn-23">
          <mxGeometry x="125" y="70" width="10" height="390" as="geometry" />
        </mxCell>
        <mxCell id="w3quCmvCJ4kMD0r-27Fn-27" value="未命中skill_portal&lt;br&gt;正常返回结果" style="html=1;verticalAlign=bottom;endArrow=open;dashed=1;endSize=8;edgeStyle=elbowEdgeStyle;elbow=horizontal;curved=0;rounded=0;" edge="1" parent="1">
          <mxGeometry x="-0.7538" y="20" relative="1" as="geometry">
            <mxPoint x="-330" y="250" as="targetPoint" />
            <Array as="points">
              <mxPoint x="320" y="250" />
            </Array>
            <mxPoint x="320" y="250" as="sourcePoint" />
            <mxPoint as="offset" />
          </mxGeometry>
        </mxCell>
        <mxCell id="w3quCmvCJ4kMD0r-27Fn-29" value="Skills Portal&lt;br&gt;技能函数" style="shape=umlLifeline;perimeter=lifelinePerimeter;whiteSpace=wrap;html=1;container=0;dropTarget=0;collapsible=0;recursiveResize=0;outlineConnect=0;portConstraint=eastwest;newEdgeStyle={&quot;edgeStyle&quot;:&quot;elbowEdgeStyle&quot;,&quot;elbow&quot;:&quot;vertical&quot;,&quot;curved&quot;:0,&quot;rounded&quot;:0};rounded=0;" vertex="1" parent="1">
          <mxGeometry x="540" y="20" width="260" height="500" as="geometry" />
        </mxCell>
        <mxCell id="w3quCmvCJ4kMD0r-27Fn-30" value="" style="html=1;points=[];perimeter=orthogonalPerimeter;outlineConnect=0;targetShapes=umlLifeline;portConstraint=eastwest;newEdgeStyle={&quot;edgeStyle&quot;:&quot;elbowEdgeStyle&quot;,&quot;elbow&quot;:&quot;vertical&quot;,&quot;curved&quot;:0,&quot;rounded&quot;:0};rounded=0;" vertex="1" parent="w3quCmvCJ4kMD0r-27Fn-29">
          <mxGeometry x="125" y="70" width="10" height="390" as="geometry" />
        </mxCell>
        <mxCell id="w3quCmvCJ4kMD0r-27Fn-43" value="该场景下没有对应技能&lt;br&gt;返回结果" style="html=1;verticalAlign=bottom;endArrow=open;dashed=1;endSize=8;edgeStyle=elbowEdgeStyle;elbow=horizontal;curved=0;rounded=0;" edge="1" parent="1">
          <mxGeometry x="-0.5362" y="10" relative="1" as="geometry">
            <mxPoint x="-330" y="420" as="targetPoint" />
            <Array as="points">
              <mxPoint x="317.5" y="420" />
            </Array>
            <mxPoint x="660" y="420" as="sourcePoint" />
            <mxPoint as="offset" />
          </mxGeometry>
        </mxCell>
        <mxCell id="w3quCmvCJ4kMD0r-27Fn-44" value="" style="shape=waypoint;sketch=0;fillStyle=solid;size=6;pointerEvents=1;points=[];fillColor=none;resizable=0;rotatable=0;perimeter=centerPerimeter;snapToPoint=1;" vertex="1" parent="1">
          <mxGeometry x="660" y="410" width="20" height="20" as="geometry" />
        </mxCell>
        <mxCell id="w3quCmvCJ4kMD0r-27Fn-45" value="" style="edgeStyle=segmentEdgeStyle;endArrow=classic;html=1;curved=0;rounded=0;endSize=8;startSize=8;" edge="1" parent="1">
          <mxGeometry width="50" height="50" relative="1" as="geometry">
            <mxPoint x="660" y="330" as="sourcePoint" />
            <mxPoint x="620" y="420" as="targetPoint" />
          </mxGeometry>
        </mxCell>
        <mxCell id="w3quCmvCJ4kMD0r-27Fn-47" value="该场景下&lt;br&gt;没有对应技能" style="edgeLabel;html=1;align=center;verticalAlign=middle;resizable=0;points=[];" vertex="1" connectable="0" parent="w3quCmvCJ4kMD0r-27Fn-45">
          <mxGeometry x="-0.1742" relative="1" as="geometry">
            <mxPoint y="26" as="offset" />
          </mxGeometry>
        </mxCell>
        <mxCell id="w3quCmvCJ4kMD0r-27Fn-49" value="" style="edgeStyle=elbowEdgeStyle;elbow=horizontal;endArrow=classic;html=1;curved=0;rounded=0;endSize=8;startSize=8;entryX=0.693;entryY=0.726;entryDx=0;entryDy=0;entryPerimeter=0;exitX=1.041;exitY=0.922;exitDx=0;exitDy=0;exitPerimeter=0;" edge="1" parent="1" source="w3quCmvCJ4kMD0r-27Fn-52" target="w3quCmvCJ4kMD0r-27Fn-44">
          <mxGeometry width="50" height="50" relative="1" as="geometry">
            <mxPoint x="680" y="310" as="sourcePoint" />
            <mxPoint x="720" y="340" as="targetPoint" />
            <Array as="points">
              <mxPoint x="730" y="370" />
            </Array>
          </mxGeometry>
        </mxCell>
        <mxCell id="w3quCmvCJ4kMD0r-27Fn-51" value="执行对应的技能" style="edgeLabel;html=1;align=center;verticalAlign=middle;resizable=0;points=[];" vertex="1" connectable="0" parent="w3quCmvCJ4kMD0r-27Fn-49">
          <mxGeometry x="-0.2237" y="1" relative="1" as="geometry">
            <mxPoint as="offset" />
          </mxGeometry>
        </mxCell>
        <mxCell id="w3quCmvCJ4kMD0r-27Fn-52" value="" style="shape=waypoint;sketch=0;fillStyle=solid;size=6;pointerEvents=1;points=[];fillColor=none;resizable=0;rotatable=0;perimeter=centerPerimeter;snapToPoint=1;" vertex="1" parent="1">
          <mxGeometry x="660" y="280" width="20" height="20" as="geometry" />
        </mxCell>
        <mxCell id="w3quCmvCJ4kMD0r-27Fn-63" value="First-Level Portal只提供一个Protal Link：skill_scene_portal。判断是否执行技能" style="shape=document;whiteSpace=wrap;html=1;boundedLbl=1;rounded=0;align=center;fillColor=#fad7ac;strokeColor=#b46504;fontColor=#330000;" vertex="1" parent="1">
          <mxGeometry x="-250" y="540" width="140" height="100" as="geometry" />
        </mxCell>
        <mxCell id="w3quCmvCJ4kMD0r-27Fn-68" style="edgeStyle=orthogonalEdgeStyle;orthogonalLoop=1;jettySize=auto;html=1;" edge="1" parent="1" source="w3quCmvCJ4kMD0r-27Fn-65">
          <mxGeometry relative="1" as="geometry">
            <mxPoint x="-10" y="460" as="targetPoint" />
          </mxGeometry>
        </mxCell>
        <mxCell id="w3quCmvCJ4kMD0r-27Fn-69" style="edgeStyle=orthogonalEdgeStyle;orthogonalLoop=1;jettySize=auto;html=1;entryX=0.5;entryY=0;entryDx=0;entryDy=0;" edge="1" parent="1" source="w3quCmvCJ4kMD0r-27Fn-65" target="w3quCmvCJ4kMD0r-27Fn-63">
          <mxGeometry relative="1" as="geometry" />
        </mxCell>
        <mxCell id="w3quCmvCJ4kMD0r-27Fn-65" value="" style="shape=waypoint;sketch=0;fillStyle=solid;size=6;pointerEvents=1;points=[];fillColor=none;resizable=0;rotatable=0;perimeter=centerPerimeter;snapToPoint=1;" vertex="1" parent="1">
          <mxGeometry x="-20" y="450" width="20" height="20" as="geometry" />
        </mxCell>
        <mxCell id="w3quCmvCJ4kMD0r-27Fn-71" style="edgeStyle=orthogonalEdgeStyle;orthogonalLoop=1;jettySize=auto;html=1;" edge="1" parent="1" source="w3quCmvCJ4kMD0r-27Fn-66">
          <mxGeometry relative="1" as="geometry">
            <mxPoint x="159.9565217391305" y="540" as="targetPoint" />
          </mxGeometry>
        </mxCell>
        <mxCell id="w3quCmvCJ4kMD0r-27Fn-66" value="" style="shape=waypoint;sketch=0;fillStyle=solid;size=6;pointerEvents=1;points=[];fillColor=none;resizable=0;rotatable=0;perimeter=centerPerimeter;snapToPoint=1;" vertex="1" parent="1">
          <mxGeometry x="320" y="450" width="20" height="20" as="geometry" />
        </mxCell>
        <mxCell id="w3quCmvCJ4kMD0r-27Fn-74" style="edgeStyle=orthogonalEdgeStyle;orthogonalLoop=1;jettySize=auto;html=1;entryX=0.5;entryY=0;entryDx=0;entryDy=0;" edge="1" parent="1" source="w3quCmvCJ4kMD0r-27Fn-67">
          <mxGeometry relative="1" as="geometry">
            <mxPoint x="520" y="540" as="targetPoint" />
          </mxGeometry>
        </mxCell>
        <mxCell id="w3quCmvCJ4kMD0r-27Fn-67" value="" style="shape=waypoint;sketch=0;fillStyle=solid;size=6;pointerEvents=1;points=[];fillColor=none;resizable=0;rotatable=0;perimeter=centerPerimeter;snapToPoint=1;" vertex="1" parent="1">
          <mxGeometry x="660" y="450" width="20" height="20" as="geometry" />
        </mxCell>
        <mxCell id="w3quCmvCJ4kMD0r-27Fn-75" value="Skills Scene Portal会按照技能的场景提供各个场景独立的Portal Link" style="shape=document;whiteSpace=wrap;html=1;boundedLbl=1;rounded=0;align=center;fillColor=#fad7ac;strokeColor=#b46504;fontColor=#330000;" vertex="1" parent="1">
          <mxGeometry x="90" y="540" width="140" height="100" as="geometry" />
        </mxCell>
        <mxCell id="w3quCmvCJ4kMD0r-27Fn-76" value="Skill Portal中的function calling对应的就是该场景下所有的Portal Modules" style="shape=document;whiteSpace=wrap;html=1;boundedLbl=1;rounded=0;align=center;fillColor=#fad7ac;strokeColor=#b46504;fontColor=#330000;" vertex="1" parent="1">
          <mxGeometry x="450" y="540" width="140" height="100" as="geometry" />
        </mxCell>
        <mxCell id="w3quCmvCJ4kMD0r-27Fn-77" value="&lt;h1&gt;&lt;font face=&quot;Comic Sans MS&quot; data-font-src=&quot;https://fonts.googleapis.com/css?family=Architects+Daughter&quot;&gt;Tarvis Skill Sequence Architecture Diagram&lt;/font&gt;&lt;/h1&gt;" style="rounded=1;whiteSpace=wrap;html=1;strokeWidth=2;fillWeight=4;hachureGap=8;hachureAngle=45;fillColor=#b1ddf0;sketch=1;strokeColor=#10739e;" vertex="1" parent="1">
          <mxGeometry x="-100" y="-120" width="620" height="80" as="geometry" />
        </mxCell>
      </root>
    </mxGraphModel>
  </diagram>
</mxfile>
